<mxfile host="app.diagrams.net" agent="Mozilla/5.0 (Windows NT 10.0; Win64; x64) AppleWebKit/537.36 (KHTML, like Gecko) Chrome/135.0.0.0 Safari/537.36" version="26.2.14">
  <diagram name="Page-1" id="KnrCR5sOVeTMIb3CCmff">
    <mxGraphModel dx="872" dy="439" grid="1" gridSize="10" guides="1" tooltips="1" connect="1" arrows="1" fold="1" page="1" pageScale="1" pageWidth="850" pageHeight="1100" math="0" shadow="0">
      <root>
        <mxCell id="0" />
        <mxCell id="1" parent="0" />
        <mxCell id="ZE31EJtjhi86TVzNSHo_-1" style="edgeStyle=orthogonalEdgeStyle;rounded=0;orthogonalLoop=1;jettySize=auto;html=1;entryX=0.5;entryY=0;entryDx=0;entryDy=0;" edge="1" parent="1" source="ZE31EJtjhi86TVzNSHo_-2" target="ZE31EJtjhi86TVzNSHo_-4">
          <mxGeometry relative="1" as="geometry" />
        </mxCell>
        <mxCell id="ZE31EJtjhi86TVzNSHo_-2" value="" style="ellipse;html=1;shape=startState;fillColor=#000000;strokeColor=#ff0000;rounded=1;shadow=0;comic=0;labelBackgroundColor=none;fontFamily=Verdana;fontSize=12;fontColor=#000000;align=center;direction=south;" vertex="1" parent="1">
          <mxGeometry x="410" y="60" width="30" height="30" as="geometry" />
        </mxCell>
        <mxCell id="ZE31EJtjhi86TVzNSHo_-3" style="edgeStyle=orthogonalEdgeStyle;rounded=0;orthogonalLoop=1;jettySize=auto;html=1;entryX=0.5;entryY=0;entryDx=0;entryDy=0;strokeColor=light-dark(#000000,#EDEDED);" edge="1" parent="1" source="ZE31EJtjhi86TVzNSHo_-4" target="ZE31EJtjhi86TVzNSHo_-8">
          <mxGeometry relative="1" as="geometry" />
        </mxCell>
        <mxCell id="ZE31EJtjhi86TVzNSHo_-4" value="Initiated" style="rounded=1;whiteSpace=wrap;html=1;arcSize=24;fillColor=#ffffc0;strokeColor=#ff0000;shadow=0;comic=0;labelBackgroundColor=none;fontFamily=Verdana;fontSize=12;fontColor=#000000;align=center;" vertex="1" parent="1">
          <mxGeometry x="380" y="140" width="90" height="50" as="geometry" />
        </mxCell>
        <mxCell id="ZE31EJtjhi86TVzNSHo_-5" value="" style="ellipse;html=1;shape=endState;fillColor=#000000;strokeColor=#ff0000;rounded=1;shadow=0;comic=0;labelBackgroundColor=none;fontFamily=Verdana;fontSize=12;fontColor=#000000;align=center;" vertex="1" parent="1">
          <mxGeometry x="400" y="580" width="30" height="30" as="geometry" />
        </mxCell>
        <mxCell id="ZE31EJtjhi86TVzNSHo_-6" style="edgeStyle=orthogonalEdgeStyle;rounded=0;orthogonalLoop=1;jettySize=auto;html=1;entryX=0.5;entryY=0;entryDx=0;entryDy=0;" edge="1" parent="1" source="ZE31EJtjhi86TVzNSHo_-8" target="ZE31EJtjhi86TVzNSHo_-11">
          <mxGeometry relative="1" as="geometry" />
        </mxCell>
        <mxCell id="ZE31EJtjhi86TVzNSHo_-7" style="edgeStyle=orthogonalEdgeStyle;rounded=0;orthogonalLoop=1;jettySize=auto;html=1;entryX=0.5;entryY=0;entryDx=0;entryDy=0;" edge="1" parent="1" source="ZE31EJtjhi86TVzNSHo_-8" target="ZE31EJtjhi86TVzNSHo_-13">
          <mxGeometry relative="1" as="geometry" />
        </mxCell>
        <mxCell id="ZE31EJtjhi86TVzNSHo_-8" value="Processing" style="rounded=1;whiteSpace=wrap;html=1;arcSize=24;fillColor=#ffffc0;strokeColor=#ff0000;shadow=0;comic=0;labelBackgroundColor=none;fontFamily=Verdana;fontSize=12;fontColor=#000000;align=center;" vertex="1" parent="1">
          <mxGeometry x="380" y="250" width="90" height="50" as="geometry" />
        </mxCell>
        <mxCell id="ZE31EJtjhi86TVzNSHo_-9" value="Payment sent" style="text;html=1;align=center;verticalAlign=middle;whiteSpace=wrap;rounded=0;" vertex="1" parent="1">
          <mxGeometry x="410" y="200" width="110" height="30" as="geometry" />
        </mxCell>
        <mxCell id="ZE31EJtjhi86TVzNSHo_-10" style="edgeStyle=orthogonalEdgeStyle;rounded=0;orthogonalLoop=1;jettySize=auto;html=1;entryX=0;entryY=0.5;entryDx=0;entryDy=0;" edge="1" parent="1" source="ZE31EJtjhi86TVzNSHo_-11" target="ZE31EJtjhi86TVzNSHo_-5">
          <mxGeometry relative="1" as="geometry">
            <Array as="points">
              <mxPoint x="295" y="595" />
            </Array>
          </mxGeometry>
        </mxCell>
        <mxCell id="ZE31EJtjhi86TVzNSHo_-11" value="Failed" style="rounded=1;whiteSpace=wrap;html=1;arcSize=24;fillColor=#ffffc0;strokeColor=#ff0000;shadow=0;comic=0;labelBackgroundColor=none;fontFamily=Verdana;fontSize=12;fontColor=#000000;align=center;" vertex="1" parent="1">
          <mxGeometry x="250" y="350" width="90" height="50" as="geometry" />
        </mxCell>
        <mxCell id="ZE31EJtjhi86TVzNSHo_-12" style="edgeStyle=orthogonalEdgeStyle;rounded=0;orthogonalLoop=1;jettySize=auto;html=1;entryX=0.5;entryY=0;entryDx=0;entryDy=0;" edge="1" parent="1" source="ZE31EJtjhi86TVzNSHo_-13" target="ZE31EJtjhi86TVzNSHo_-17">
          <mxGeometry relative="1" as="geometry" />
        </mxCell>
        <mxCell id="ZE31EJtjhi86TVzNSHo_-22" style="edgeStyle=orthogonalEdgeStyle;rounded=0;orthogonalLoop=1;jettySize=auto;html=1;entryX=0.5;entryY=0;entryDx=0;entryDy=0;" edge="1" parent="1" source="ZE31EJtjhi86TVzNSHo_-13" target="ZE31EJtjhi86TVzNSHo_-5">
          <mxGeometry relative="1" as="geometry" />
        </mxCell>
        <mxCell id="ZE31EJtjhi86TVzNSHo_-13" value="Successful" style="rounded=1;whiteSpace=wrap;html=1;arcSize=24;fillColor=#ffffc0;strokeColor=#ff0000;shadow=0;comic=0;labelBackgroundColor=none;fontFamily=Verdana;fontSize=12;fontColor=#000000;align=center;" vertex="1" parent="1">
          <mxGeometry x="490" y="360" width="90" height="50" as="geometry" />
        </mxCell>
        <mxCell id="ZE31EJtjhi86TVzNSHo_-14" value="Approved " style="text;html=1;align=center;verticalAlign=middle;whiteSpace=wrap;rounded=0;" vertex="1" parent="1">
          <mxGeometry x="520" y="300" width="90" height="30" as="geometry" />
        </mxCell>
        <mxCell id="ZE31EJtjhi86TVzNSHo_-15" value="Refund requested" style="text;html=1;align=center;verticalAlign=middle;whiteSpace=wrap;rounded=0;" vertex="1" parent="1">
          <mxGeometry x="520" y="430" width="140" height="30" as="geometry" />
        </mxCell>
        <mxCell id="ZE31EJtjhi86TVzNSHo_-16" style="edgeStyle=orthogonalEdgeStyle;rounded=0;orthogonalLoop=1;jettySize=auto;html=1;" edge="1" parent="1" source="ZE31EJtjhi86TVzNSHo_-17" target="ZE31EJtjhi86TVzNSHo_-5">
          <mxGeometry relative="1" as="geometry">
            <Array as="points">
              <mxPoint x="535" y="595" />
            </Array>
          </mxGeometry>
        </mxCell>
        <mxCell id="ZE31EJtjhi86TVzNSHo_-17" value="Refunded" style="rounded=1;whiteSpace=wrap;html=1;arcSize=24;fillColor=#ffffc0;strokeColor=#ff0000;shadow=0;comic=0;labelBackgroundColor=none;fontFamily=Verdana;fontSize=12;fontColor=#000000;align=center;" vertex="1" parent="1">
          <mxGeometry x="490" y="480" width="90" height="50" as="geometry" />
        </mxCell>
        <mxCell id="ZE31EJtjhi86TVzNSHo_-18" value="Denied" style="text;html=1;align=center;verticalAlign=middle;whiteSpace=wrap;rounded=0;" vertex="1" parent="1">
          <mxGeometry x="220" y="290" width="100" height="30" as="geometry" />
        </mxCell>
      </root>
    </mxGraphModel>
  </diagram>
</mxfile>
